<?xml version="1.0" encoding="UTF-8"?>
<svg xmlns="http://www.w3.org/2000/svg" width="1700" height="720" viewBox="0 0 1700 720">
<style>
  .title{font:700 20px ui-sans-serif,system-ui,-apple-system,Segoe UI,Roboto,Arial;fill:#111;}
  .axis{font:12px ui-sans-serif,system-ui,-apple-system,Segoe UI,Roboto,Arial;fill:#333;}
  .label{font:12px ui-sans-serif,system-ui,-apple-system,Segoe UI,Roboto,Arial;fill:#111;}
  .small{font:10px ui-sans-serif,system-ui,-apple-system,Segoe UI,Roboto,Arial;fill:#222;}
  .org{font:600 13px ui-sans-serif,system-ui,-apple-system,Segoe UI,Roboto,Arial;fill:#111;}
</style>
<text x="180" y="38" class="title">Cross-lab AI timeline (2022–2026)</text>
<line x1="180" y1="670" x2="1670" y2="670" stroke="#444" stroke-width="1"/>
<line x1="220.0335852225021" y1="670" x2="220.0335852225021" y2="676" stroke="#444" stroke-width="1"/>
<text x="220.0335852225021" y="692" text-anchor="middle" class="axis">2023</text>
<line x1="676.6666666666666" y1="670" x2="676.6666666666666" y2="676" stroke="#444" stroke-width="1"/>
<text x="676.6666666666666" y="692" text-anchor="middle" class="axis">2024</text>
<line x1="1134.5507976490344" y1="670" x2="1134.5507976490344" y2="676" stroke="#444" stroke-width="1"/>
<text x="1134.5507976490344" y="692" text-anchor="middle" class="axis">2025</text>
<line x1="1591.183879093199" y1="670" x2="1591.183879093199" y2="676" stroke="#444" stroke-width="1"/>
<text x="1591.183879093199" y="692" text-anchor="middle" class="axis">2026</text>
<text x="168" y="133.0" text-anchor="end" class="org">Anthropic</text>
<line x1="180" y1="129.0" x2="1670" y2="129.0" stroke="#eee" stroke-width="1"/>
<text x="168" y="251.0" text-anchor="end" class="org">Google</text>
<line x1="180" y1="247.0" x2="1670" y2="247.0" stroke="#eee" stroke-width="1"/>
<text x="168" y="369.0" text-anchor="end" class="org">Meta</text>
<line x1="180" y1="365.0" x2="1670" y2="365.0" stroke="#eee" stroke-width="1"/>
<text x="168" y="487.0" text-anchor="end" class="org">Mistral</text>
<line x1="180" y1="483.0" x2="1670" y2="483.0" stroke="#eee" stroke-width="1"/>
<text x="168" y="605.0" text-anchor="end" class="org">OpenAI</text>
<line x1="180" y1="601.0" x2="1670" y2="601.0" stroke="#eee" stroke-width="1"/>
<circle cx="180.0" cy="601.0" r="6" fill="#66a61e" stroke="#111" stroke-width="0.6"/>
<text x="180.0" y="583.0" text-anchor="middle" class="label">ChatGPT (research preview)</text>
<circle cx="310.1091519731318" cy="601.0" r="6" fill="#66a61e" stroke="#111" stroke-width="0.6"/>
<text x="310.1091519731318" y="583.0" text-anchor="middle" class="label">GPT-4</text>
<circle cx="458.9840470193115" cy="129.0" r="6" fill="#1b9e77" stroke="#111" stroke-width="0.6"/>
<text x="458.9840470193115" y="111.0" text-anchor="middle" class="label">Claude 2</text>
<circle cx="467.7413937867338" cy="365.0" r="6" fill="#7570b3" stroke="#111" stroke-width="0.6"/>
<text x="467.7413937867338" y="347.0" text-anchor="middle" class="label">Llama 2</text>
<circle cx="554.063811922754" cy="601.0" r="6" fill="#66a61e" stroke="#111" stroke-width="0.6"/>
<text x="554.063811922754" y="583.0" text-anchor="middle" class="label">ChatGPT can now see/hear/speak</text>
<circle cx="556.5659109991605" cy="483.0" r="6" fill="#e7298a" stroke="#111" stroke-width="0.6"/>
<text x="556.5659109991605" y="465.0" text-anchor="middle" class="label">Mistral 7B</text>
<circle cx="606.607892527288" cy="601.0" r="6" fill="#66a61e" stroke="#111" stroke-width="0.6"/>
<text x="606.607892527288" y="631.0" text-anchor="middle" class="label">DevDay: GPT-4 Turbo + Assistants API</text>
<circle cx="644.1393786733837" cy="247.0" r="6" fill="#d95f02" stroke="#111" stroke-width="0.6"/>
<text x="644.1393786733837" y="229.0" text-anchor="middle" class="label">Introducing Gemini</text>
<circle cx="650.3946263643996" cy="483.0" r="6" fill="#e7298a" stroke="#111" stroke-width="0.6"/>
<text x="650.3946263643996" y="513.0" text-anchor="middle" class="label">Mixtral 8x7B</text>
<circle cx="732.9638958858102" cy="247.0" r="6" fill="#d95f02" stroke="#111" stroke-width="0.6"/>
<text x="732.9638958858102" y="277.0" text-anchor="middle" class="label">Gemini 1.5 Pro</text>
<circle cx="746.7254408060453" cy="483.0" r="6" fill="#e7298a" stroke="#111" stroke-width="0.6"/>
<text x="746.7254408060453" y="465.0" text-anchor="middle" class="label">Mistral Large</text>
<circle cx="755.4827875734676" cy="129.0" r="6" fill="#1b9e77" stroke="#111" stroke-width="0.6"/>
<text x="755.4827875734676" y="111.0" text-anchor="middle" class="label">Claude 3 model family</text>
<circle cx="810.528967254408" cy="483.0" r="6" fill="#e7298a" stroke="#111" stroke-width="0.6"/>
<text x="810.528967254408" y="513.0" text-anchor="middle" class="label">Mixtral 8x22B</text>
<circle cx="811.7800167926113" cy="365.0" r="6" fill="#7570b3" stroke="#111" stroke-width="0.6"/>
<text x="811.7800167926113" y="347.0" text-anchor="middle" class="label">Meta AI assistant built with Llama 3</text>
<circle cx="843.0562552476911" cy="601.0" r="6" fill="#66a61e" stroke="#111" stroke-width="0.6"/>
<text x="843.0562552476911" y="631.0" text-anchor="middle" class="label">GPT-4o</text>
<circle cx="891.8471872376155" cy="129.0" r="6" fill="#1b9e77" stroke="#111" stroke-width="0.6"/>
<text x="891.8471872376155" y="111.0" text-anchor="middle" class="label">Claude 3.5 Sonnet</text>
<circle cx="931.8807724601174" cy="365.0" r="6" fill="#7570b3" stroke="#111" stroke-width="0.6"/>
<text x="931.8807724601174" y="347.0" text-anchor="middle" class="label">Llama 3.1</text>
<circle cx="933.1318219983208" cy="483.0" r="6" fill="#e7298a" stroke="#111" stroke-width="0.6"/>
<text x="933.1318219983208" y="513.0" text-anchor="middle" class="label">Mistral Large 2</text>
<circle cx="995.6842989084802" cy="601.0" r="6" fill="#66a61e" stroke="#111" stroke-width="0.6"/>
<text x="995.6842989084802" y="631.0" text-anchor="middle" class="label">o1-preview</text>
<circle cx="1001.9395465994961" cy="483.0" r="6" fill="#e7298a" stroke="#111" stroke-width="0.6"/>
<text x="1001.9395465994961" y="465.0" text-anchor="middle" class="label">Pixtral 12B</text>
<circle cx="1011.9479429051217" cy="365.0" r="6" fill="#7570b3" stroke="#111" stroke-width="0.6"/>
<text x="1011.9479429051217" y="395.0" text-anchor="middle" class="label">Llama 3.2 + Meta AI product updates</text>
<circle cx="1045.7262804366078" cy="129.0" r="6" fill="#1b9e77" stroke="#111" stroke-width="0.6"/>
<text x="1045.7262804366078" y="111.0" text-anchor="middle" class="label">Claude 3.5 models + computer use</text>
<circle cx="1108.2787573467674" cy="247.0" r="6" fill="#d95f02" stroke="#111" stroke-width="0.6"/>
<text x="1108.2787573467674" y="277.0" text-anchor="middle" class="label">Gemini 2.0</text>
<circle cx="1222.1242653232578" cy="247.0" r="6" fill="#d95f02" stroke="#111" stroke-width="0.6"/>
<text x="1222.1242653232578" y="229.0" text-anchor="middle" class="label">Gemini Robotics</text>
<circle cx="1282.174643157011" cy="365.0" r="6" fill="#7570b3" stroke="#111" stroke-width="0.6"/>
<text x="1282.174643157011" y="395.0" text-anchor="middle" class="label">Meta AI app (built with Llama 4)</text>
<circle cx="1381.007556675063" cy="601.0" r="6" fill="#66a61e" stroke="#111" stroke-width="0.6"/>
<text x="1381.007556675063" y="631.0" text-anchor="middle" class="label">ChatGPT Agent</text>
<circle cx="1407.2795969773301" cy="601.0" r="6" fill="#66a61e" stroke="#111" stroke-width="0.6"/>
<text x="1407.2795969773301" y="583.0" text-anchor="middle" class="label">GPT-5 for developers</text>
<circle cx="1536.1376994122586" cy="247.0" r="6" fill="#d95f02" stroke="#111" stroke-width="0.6"/>
<text x="1536.1376994122586" y="229.0" text-anchor="middle" class="label">Gemini 3</text>
<circle cx="1553.6523929471032" cy="483.0" r="6" fill="#e7298a" stroke="#111" stroke-width="0.6"/>
<text x="1553.6523929471032" y="465.0" text-anchor="middle" class="label">Mistral 3</text>
<circle cx="1649.983207388749" cy="129.0" r="6" fill="#1b9e77" stroke="#111" stroke-width="0.6"/>
<text x="1649.983207388749" y="111.0" text-anchor="middle" class="label">Claude Sonnet 4.6</text>
<circle cx="1670.0" cy="601.0" r="6" fill="#66a61e" stroke="#111" stroke-width="0.6"/>
<text x="1670.0" y="583.0" text-anchor="middle" class="label">GPT-5.4</text>
<rect x="180" y="692" width="12" height="12" fill="#1b9e77" stroke="#111" stroke-width="0.6"/>
<text x="198" y="702" class="small">Anthropic</text>
<rect x="350" y="692" width="12" height="12" fill="#d95f02" stroke="#111" stroke-width="0.6"/>
<text x="368" y="702" class="small">Google</text>
<rect x="520" y="692" width="12" height="12" fill="#7570b3" stroke="#111" stroke-width="0.6"/>
<text x="538" y="702" class="small">Meta</text>
<rect x="690" y="692" width="12" height="12" fill="#e7298a" stroke="#111" stroke-width="0.6"/>
<text x="708" y="702" class="small">Mistral</text>
<rect x="860" y="692" width="12" height="12" fill="#66a61e" stroke="#111" stroke-width="0.6"/>
<text x="878" y="702" class="small">OpenAI</text>
</svg>
